<?xml version="1.0" encoding="utf-8"?>
<svg version="1.1" x="0px" y="0px" viewBox="0 0 100 125" style="enable-background:new 0 0 100 100;" xml:space="preserve">
  <path d="M65.34,85.69c-2.05,0.06-3-0.33-3.49-2.3c-0.16-0.66-0.34-2.46-1.74-2.06c-1.4,0.4-2.82,0.9-4.01,1.68  c-1.29,0.85-1.05,2.3,0.38,3.06c2.36,1.25,3.76,2.23,3.42,3.23c-0.27,0.81-0.91,1.12-1.7,1.14c-2.38,0.06-4.45-0.88-6.4-2.09  c-0.87-0.54-0.78-1.53-0.85-2.43c-0.14-1.86-0.34-2.16-2-1.89c-3.27,0.54-5.8-1.28-8.49-2.51c-1.11-0.51-1.51-1.68-1.22-2.94  c0.68-3.01,0.78-6.11,1.65-9.11c0.77-2.63,0.78-5.41,1.53-8.13c0.29-1.04-0.26-1.48-1.16-1.35c-2.1,0.31-5.14,1.64-8.27,1.97  c-2.07,0.22-4.36-0.06-6.97-4.55c-1.49-2.56-1.96-5.5-0.48-11.85c0.97-4.19,1.35-8.37,1.45-12.59c0.09-4.1,0.71-7.93,3.32-11.25  c0.81-1.04,1.06-2.24,0.35-3.42c-1.04-1.73-0.93-3.6-0.72-5.46c0.2-1.79,1.65-3.25,3.08-3.25c1.45,0,3.02,1.72,3.1,3.53  c0.09,1.95,0.09,3.91-0.31,5.85c-0.24,1.14-0.22,2.25,0.33,3.33c2.17,4.33,4.66,3.45,7.07,3.35c2.32-0.1,6.05-0.96,8.36-1.57  c4.56-1.2,4.42-1.54,8.67-3.18c1.84-0.71,3.51-0.44,3.93,0.45c0.4,0.83,0.09,2.02-1.57,2.74c-4.09,1.76-12.77,4.9-16.44,5.01  c-2.98,0.08-6.29,0.07-6.1,1.41c0.14,0.95,4.86,2.12,10.63,1.04c3.75-0.7,5.73-0.72,6.18,0.14c0.46,0.87,0.25,2.21-1.05,2.66  c-3.03,1.06-7.46,1.39-12.38,1.05c-3.97-0.27-4.06,0.3-4.09,4.2c-0.01,1.34,0.06,4.98,0.08,5.38c0.16,3.04,1.57,5.06,4.65,5.24  c3.71,0.22,6.4,2.09,9.09,4.25c3.05,2.44,6.18,4.78,9.24,7.2c2.42,1.91,8.11,4.14,10.82,5.51c2.67,1.35,2.63,2.33,0.83,4.74  c-1.89,2.53-4.1,4.64-6.92,6.04c-0.8,0.39-3.04,1.39-2.07,2.89c0.89,1.38,2.67,0.6,3.56,0.46c1.46-0.22,2.39,0.73,2.52,2.06  C71.34,84.9,67.47,85.63,65.34,85.69z" />
</svg>