<?xml version="1.0" encoding="utf-8"?>
<svg version="1.1" x="0px" y="0px" viewBox="0 0 100 125" style="enable-background:new 0 0 100 100;" xml:space="preserve">
  <path d="M81.57,56.72c-4.87-0.54-3.62-0.63-2.97,2.94c0.25,1.35,0.67,2.64,0.93,4.03c0.4,2.07,0.94,3.5,3.34,3.73  c1.71,0.16,1.72,1.95,2.28,3.15c0.49,1.05,0.73,2.33,2.41,1.71c0.34-0.12,0.74-0.02,0.84,0.45c0.09,0.41-0.13,0.67-0.44,0.9  c-1.37,1.03-2.69,0.69-3.45-0.89c-0.22-0.46-0.54-0.9-0.64-1.38c-0.54-2.89-2.75-3.18-5.08-3.4c-0.88-0.08-1.37,0.16-1.63,1  c-0.89,2.84-1.78,5.68-2.73,8.5c-0.34,1.01,0.23,1.46,0.86,1.99c0.35,0.3,0.57,0.71,0.17,1.12c-0.31,0.32-0.67,0.14-1-0.02  c-1.23-0.59-1.98-1.36-1.46-2.91c0.94-2.82,1.75-5.69,2.67-8.52c0.36-1.11,0.35-1.88-1.07-1.92c-1.12-0.03-1.15-0.81-1.27-1.65  c-0.38-2.53-0.29-5.07-0.27-7.61c0.01-1.46-0.27-2.42-1.94-1.38c-1.32,0.82-1.82,0.07-2.52-0.95c-2.73-3.95-3.32-8.42-3.5-13.04  c-0.21-5.31-0.48-6.13-3.21-10.31c0.35,4.2,0.67,8.04,1,11.89c0.17,1.95,0.36,3.9,0.53,5.85c0.05,0.58,0.11,1.38-0.58,1.48  c-1.83,0.25-1.26,1.41-1,2.39c1.42,5.27,3.55,9.79,0.68,21.82c-0.24,1.02-0.48,2.01,0.71,2.66c0.46,0.25,0.49,0.7,0.21,1.12  c-0.2,0.31-0.46,0.52-0.88,0.53c-1.32,0.04-2.59-1.32-2.39-2.67c0.32-2.15,0.48-4.37,1.1-6.43c1.87-6.18-0.62-11.89-1.69-17.75  c-0.12-0.66-0.4-1.31-1.28-1.17c-0.99,0.16-0.96,0.98-0.96,1.7c0,5.59,0.02,11.19,0.04,16.78c0.01,2.83,0.04,5.67,0.03,8.5  c0,0.71,0.11,1.58-0.76,1.86c-1.03,0.33-2.17,0.58-3.18,0.02c-0.71-0.4-0.55-1.04,0.23-1.21c1.32-0.3,1.45-1.22,1.45-2.31  c-0.01-7.63-0.01-15.26,0.01-22.89c0-1.33-0.23-2.26-1.9-2.2c-1.62,0.06-1.63-1.26-1.52-2.33c0.53-4.92-0.01-9.88,0.64-14.79  c0.04-0.27,0-0.54-0.3-0.91c-1.03,2.21-2.15,4.38-3.06,6.64c-0.8,1.97-2,3.5-3.83,4.57c-3.73,2.18-6.7,5.05-8.16,9.25  c-0.46,1.32-1.3,1.8-2.7,1.27c-1.36-0.51-1.65,0.15-1.76,1.47c-0.53,6.34-0.16,12.6,1.45,18.77c0.25,0.96,0.16,2.08,1.02,2.8  c0.39,0.33,0.95,0.55,0.66,1.18c-0.24,0.53-0.82,0.54-1.32,0.61c-0.72,0.11-1.09-0.25-1.23-0.91c-0.24-1.06-0.5-2.12-0.71-3.19  c-0.47-2.28-0.9-4.56-1.37-6.83c-0.58-2.8-5.01-4.32-6.96-2.2c-2.74,3-5.7,5.54-9.61,6.88c-0.68,0.23-1.16,1.05-1.74,1.59  c-0.28,0.26-0.61,0.44-0.96,0.17c-0.37-0.28-0.25-0.65-0.07-0.97c0.66-1.19,1.64-2.02,2.93-2.48c3.02-1.08,5.43-2.95,7.5-5.39  c0.9-1.06,1.12-1.63-0.42-2.08c-1.34-0.39-1.29-1.02-0.4-1.99c2.49-2.71,4.9-5.5,7.54-8.48c-3.92-0.12-7.48,0.07-11.01,0.93  c-0.71,0.17-1.96,0.88-2.16-0.46c-0.15-1.01,1.09-0.88,1.82-1.07c3.68-1,7.49-0.78,11.23-1.18c1.42-0.15,1.95-0.63,1.56-2.09  c-0.32-1.18,0.13-2.19,1.27-2.7c0.75-0.33,1.62-0.4,2.21,0.33c0.8,1,0.41,2.02-0.04,3.07c-0.31,0.73-1.75,1.49-0.33,2.32  c1.4,0.81,2.4,0.02,2.84-1.35c1.38-4.31,4.56-6.93,8.31-9.03c1.06-0.59,1.73-1.45,2.22-2.57c1.42-3.26,2.76-6.56,4.53-9.66  c0.84-1.46,1.67-2.9,3.15-3.82c1.86-1.15,2.12-2.58,0.88-4.37c-0.9-1.3-0.96-2.58,0.35-3.68c0.69-0.58,1.49-0.96,2.41-0.57  c1.02,0.42,1.34,1.34,1.32,2.31c-0.02,0.7-0.24,1.44-0.53,2.09c-0.84,1.82-1.2,3.38,1.45,3.85c0.54,0.1,0.87,0.5,1.14,0.95  c2.6,4.34,5.55,8.52,5.55,13.94c0,2.6,0.39,5.21,0.65,7.8c0.18,1.8,1.12,3.37,2.19,4.66c1.01,1.22,2.03-0.36,3.03-0.72  c0.87-0.32,1.56-0.82,1.03-1.97c-0.39-0.86-0.72-1.75-0.59-2.73c0.12-0.91,0.37-1.76,1.46-1.87c1.12-0.12,1.78,0.53,2.1,1.52  c0.33,1.01,0.22,2-0.28,2.95c-0.41,0.77-0.63,1.76,0.34,2.05c2.99,0.87,5.7,2.01,9.22,1.07c0.36-0.09,1.33-0.13,1.29,0.71  C87.48,56.43,84.12,57,81.57,56.72z" />
</svg>