<?xml version="1.0" encoding="utf-8"?>
<svg version="1.1" x="0px" y="0px" viewBox="0 0 100 125" style="enable-background:new 0 0 100 100;" xml:space="preserve">
  <path d="M29.03,32.99c-0.83,1.07-1.6,2.36-2.18,3.78c-2.41,5.91-7.76,8.45-12.32,11.96c-0.68,0.53-1.32,0.56-1.82-0.3  c-0.48-0.82-0.16-1.4,0.52-1.86c2.12-1.42,4.23-2.86,6.4-4.21c1.43-0.89,2.52-2.02,3.33-3.51c1.79-3.28,3.74-6.48,5.56-9.74  c1.08-1.94,2.32-3.71,4.21-4.95c2.07-1.35,2.44-2.93,1.01-5.06c-1.17-1.75-1.51-3.97,0.55-5.39c0.9-0.62,1.96-0.84,3.11-0.14  c1.04,0.63,1.41,1.63,1.42,2.79c0.02,1.52-0.82,2.77-1.32,4.13c-0.67,1.82-0.2,2.96,1.96,3.2c4.49,0.5,8.67-0.82,12.88-1.98  c1.31-0.36,0.91-1.04,0.33-1.78c-1.74-2.23-3.48-4.45-5.18-6.72c-0.62-0.83-1.42-2.13-0.39-2.77c1.02-0.64,1.7,0.54,2.22,1.25  c2.1,2.87,4.12,5.8,6.2,8.69c0.93,1.3,0.79,2.1-0.86,2.56c-3.34,0.92-6.61,2.28-10,2.76c-2.92,0.41-3.29,1.75-3.05,4.17  c0.64,6.43,1.15,12.88,1.72,19.32c0.13,1.44,0.65,2.93-1.55,3.39c-0.98,0.2-0.88,1.28-0.88,2.09c0.03,9.94,0.09,19.88,0.11,29.83  c0,1.33,0.52,2.02,1.85,2.2c0.64,0.09,1.27,0.42,1.09,1.27c-0.15,0.73-0.72,0.93-1.41,1.06c-3.11,0.57-4.37-0.44-4.38-3.71  c-0.02-9.76,0.02-19.52-0.05-29.28c-0.01-1.11,0.81-3.04-0.99-3.18c-2.1-0.16-1.51,1.87-1.51,3.11c-0.06,10.03-0.05,20.07-0.08,30.1  c-0.01,3.28-0.97,4.08-4.13,3.53c-0.55-0.1-1.15-0.16-1.29-0.79c-0.16-0.69,0.37-1,0.92-1.09c1.62-0.26,1.6-1.45,1.66-2.68  c0.45-9.84,0.32-19.69,0.36-29.54c0.01-1.57-0.11-2.71-2.21-2.37c-1.68,0.27-2.22-0.75-2.11-2.33c0.31-4.82,0.58-9.63,0.84-14.45  c0.06-1.06,0.03-2,0.01-3.18C29.61,32.83,29.23,32.73,29.03,32.99z" />
  <path d="M56.66,33.52c-0.3,1.16,0.36,1.85,1.48,2.03c2.26,0.37,4.35,0.87,6.59,1.34c1.62,0.34,3.32-2.03,3.9-1.85  c0.85,0.27-0.82,5.87-1.15,8.73c-1.5,12.99-1.58,26.07-2.38,39.1c-0.1,1.58-0.04,3.05-2.19,3.18c-0.61,0.04-1.12,0.44-1.14,1.16  c-0.02,0.56,0.32,0.89,0.8,1.14c2.31,1.21,4.48-0.27,4.61-2.99c0.17-3.34,0.17-6.72,0.43-10.13c0.56-7.39,0.51-14.64,1.87-21.96  c0.55-2.97,2.09-3.87,4.11-3.6c2.38,0.31,3.94,1.27,4.17,4.12c0.87,10.54,1.12,21.11,1.69,31.66c0.16,2.89,1.77,4,4.53,3.1  c0.5-0.17,0.95-0.34,1-0.93c0.05-0.56-0.2-1.02-0.76-1.12c-2.39-0.43-2.43-2.31-2.59-4.12c-1.31-14.25-1.52-42.57-0.36-42.87  c1.16-0.3,2.31,9.06,3.5,13.59c0.23,0.89,0.16,2.26,1.63,1.98c1.33-0.26,1.21-1.41,0.96-2.42c-2.18-8.5-4-17.12-6.73-25.44  c-1.19-3.62-3.03-6.71-1.17-10.59c0.51-1.05,0-2.46-1.24-3.07c-1.01-0.49-2.17-0.41-3.17,0.17c-1.2,0.69-1.46,1.83-1.22,3.11  c0.09,0.49,0.2,0.99,0.39,1.44c0.67,1.54,0.32,2.68-1.15,3.53c-2.86,1.65-4.29,4.29-5.28,7.34c-1.8,5.53-2.49,6.19-8.04,4.23  C58.89,33.08,56.96,32.39,56.66,33.52z" />
</svg>