<?xml version="1.0" encoding="utf-8"?>
<svg version="1.1" x="0px" y="0px" viewBox="0 0 100 125" style="enable-background:new 0 0 100 100;" xml:space="preserve">
  <path d="M63.98,30.19c1.03,7.61,2.72,14.47,2.6,21.53c-0.02,1.5-0.06,3.02,0.04,4.51c0.27,4.07-0.58,7.28-5.47,7.63  c-0.74,0.05-0.92,0.69-0.48,1.08c0.56,0.5,3.83,0.54,5.73,0.6c1.97,0.06,4.29-0.59,5.17,1.91c0.83,2.35-0.08,6.17-1.66,6.15  c-1.64-0.02-1.56-1.87-2.23-2.76c-1.22-1.62-4.42-2.07-6.41-1.03c-1.96,1.02-1.66,2.64-1.2,4.34c0.88,3.23,1.8,6.45,2.56,9.71  c1.11,4.78,0.25,5.78-4.51,5.52c-0.79-0.04-2.34-0.23-2.66-1.16c-0.3-0.87,0.3-1.37,0.94-1.57c2.18-0.71,2.78-1.95,2.16-3.72  c-0.89-2.52-1.9-5.01-2.79-7.53c-0.85-2.43-1.66-4.53-4.95-4.73c-2.61-0.16-2.31-2.51-2.46-4.64c-0.66-9.71,2.52-18.81,4.16-28.14  c0.2-1.15,0.53-2.29,0.71-3.44c0.22-1.39,1.4-3.2-0.38-4.01c-1.49-0.68-2.94,0.83-3.81,1.89c-2.54,3.1-4.71,6.5-7.2,9.64  c-1.16,1.47-2.33,4.61-4.13,3.46c-1.92-1.23,0.71-3.39,1.46-5.05c3.93-6.91,7.43-12.22,13.8-16.14c3.02-1.86,2.86-2.11,0.54-5.07  c-0.31-0.39-0.62-0.79-0.87-1.22c-1.66-2.9-1.13-6.03,1.17-7.01c2.26-0.96,5.41,0.06,6.5,2.9c0.24,0.62,0.39,1.97,0.25,2.55  c-0.98,4.01,1.54,6.25,4.15,8.44c5.73,4.78,10.46,10.33,13.49,17.23c0.4,0.92,0.96,1.77,1.35,2.69c0.33,0.76,0.63,1.64-0.41,2.12  c-0.71,0.33-1.38-0.09-1.75-0.63c-1.88-2.77-3.74-5.55-5.52-8.38C70,34.83,67.86,32.12,63.98,30.19z" />
  <path d="M29.3,89.42c-5.39-0.08-9.24-3.92-9.17-9.16c0.06-4.91,4.46-9.38,9.27-9.41c5.07-0.03,9.62,4.64,9.49,9.74  C38.74,85.71,34.63,89.5,29.3,89.42z" />
</svg>