<?xml version="1.0" encoding="utf-8"?>
<svg version="1.1" x="0px" y="0px" viewBox="0 0 100 125" style="enable-background:new 0 0 100 100;" xml:space="preserve">
  <path d="M49.42,62.54c0.58-0.01,1.53,2.09,2.36,4.56c0.69,2.05,1.48,4.08,2.78,5.86c1.86,2.56,3.7,5.13,5.53,7.72  c1.34,1.9,1.34,1.99-0.06,3.99c-0.5,0.72-0.83,1.4-0.13,2.12c0.67,0.69,1.44,0.45,2.19,0.09c0.76-0.37,1.08-1.14,1.59-1.73  c1.63-1.89,1.7-2.85,0.43-4.91c-2.24-3.65-4.87-7.09-6.7-10.96c-0.37-0.78-1.04-3.52-1.35-4.7c-0.81-3.05-1.8-6.09-1.95-9.26  c-0.12-2.71-0.4-5.39-0.6-8.09c-0.08-1.05-0.49-3.41-0.31-4.97c0.64,1.76,1.19,4.46,1.24,5.93c0.08,2.32,0.84,2.76,1.68,2.79  c1.13,0.05,0.91-1.91,0.89-2.86c-0.09-2.83-0.23-3.46-0.27-5.45c-0.01-0.39-0.07-0.81-0.22-1.16c-1.48-3.59-3.32-10.67-5.01-14.68  c-0.22-0.53-0.6-1.99-0.83-2.53c-0.45-1.03-1.22-3.59-0.46-6.04c0.37-1.19,0.43-2.48,0.04-3.72c-0.53-1.69-2.07-2.25-3.58-1.35  c-1.71,1.02-2.5,2.51-1.67,4.35c1.17,2.61,1.15,5.05,0.53,7.79c-0.16,0.73-1.74,7.85-2.21,10.49c-0.16,0.9-1.33,1.86-2.05,2.41  c-1.38,1.06-3,1.79-4.48,2.63c-1.13,0.64-2.15,1.58-1.68,2.44c0.36,0.67,1.13,0.53,1.71,0.27c2.21-0.98,4.53-1.71,6.59-3.02  c0.71-0.45,1.07-0.2,1.13,0.64c0.19,2.63,0.45,5.26,0.53,7.89c0.07,2.17,0.49,4.42-0.15,6.5c-0.87,2.82-1.73,5.65-2.59,8.48  c-0.94,3.11-3.11,11.42-3.57,15.33c-0.11,0.91-0.45,1.39-1.36,1.26c-0.61-0.09-2.07-0.43-2.27,0.96c-0.1,0.69,0.15,1.2,0.78,1.43  c1.23,0.46,2.47,0.97,3.74,1.25c1.28,0.29,2.47-0.34,2.62-1.5c0.28-2.04,1.18-3.93,1.39-5.95c0.23-2.19,1-4.25,1.69-6.27  C46.1,68.45,48.07,62.58,49.42,62.54z" />
</svg>