<?xml version="1.0" encoding="utf-8"?>
<svg version="1.1" x="0px" y="0px" viewBox="0 0 100 125" style="enable-background:new 0 0 100 100;" xml:space="preserve">
  <path d="M55.92,21.3c-1.78,1.87-2.45,2.51-3.46,3.93c-0.5,0.7-1.11,2.14-3.08,1.5c-0.8-0.26-0.78-1.06-0.76-1.77  c0.03-1.12,0.15-2.25,0.07-3.36c-0.09-1.25-0.76-1.75-1.99-1.71c-1.11,0.03-1.78,0.54-2.16,1.73c-0.37,1.16,0.41,2.32,0.65,3.5  c0.43,1.66-0.52,1.95-2.21,2.23c-0.76,0.13-1.34,0.42-1.5,1.17c-0.67,3.14-1.19,5.12-1.74,7.63c-0.35,1.58-1.03,5.67-0.4,7.24  c0.92,2.31,2.04,4.54,3.04,6.82c0.73,1.65,1.4,3.25,1.14,5.2c-0.39,2.9-0.56,5.84-0.63,8.76c-0.18,7.74-0.16,15.49-0.99,23.2  c-0.15,1.37,0.34,2.05,1.63,2.27c1.3,0.22,2.62,0.17,3.92,0.04c0.72-0.07,1.36-0.39,1.44-1.23c0.08-0.85-0.11-1.62-0.91-2.11  c-0.46-0.28-1.81,0.29-1.4-2.64c0.91-6.53,2.21-20.56,2.38-21.26c0,0,1.28,17.46,1.02,22.8c-0.12,2.38,0.24,4.24,1.37,4.31  c2.01,0.12,3.98,0.33,5.96,0c0.92-0.15,1.36-1.06,1.22-2.03c-0.13-0.88-0.67-1.43-1.52-1.35c-1.74,0.15-2.78,0.23-3.05-1.56  c-0.57-3.78-0.28-7.45-0.39-11.24c-0.23-7.74,0.44-15.9,0.21-23.65c-0.12-4.12-1.34-12.77-1.48-16.02  c-0.04-0.97,0.22-1.81,0.79-2.63c2.32-3.32,4.51-6.74,6.98-9.96c0.61-0.79,0.9-1.61,0.89-2.59c-0.03-2.37-0.14-3.67,0-6.04  c0.04-0.7-0.15-2.26-1.66-2.28c-1.8-0.03-1.27,2.3-1.27,3.16C58,18.53,57.17,19.98,55.92,21.3z M43.11,34.05l0.68,12.26  C43.79,46.31,40.65,42.29,43.11,34.05z" />
</svg>