<?xml version="1.0" encoding="utf-8"?>
<svg version="1.1" x="0px" y="0px" viewBox="0 0 100 125" style="enable-background:new 0 0 100 100;" xml:space="preserve">
  <path d="M55.66,81.85c0.03,0.88-0.01,1.76-1.11,1.8c-1.2,0.04-2.66,0.66-3.52-0.54c-0.65-0.91,0.17-1.52,1.09-1.62  c1.17-0.13,1.62-0.55,1.57-1.84c-0.35-7.91-0.61-15.82-0.88-23.72c-0.05-1.37,0.09-2.61-1.83-2.95c-1.28-0.23-1.04-1.65-1.05-2.63  c-0.03-4.6-0.86-9.13-1.11-13.71c-0.02-0.35-0.05-1.73-0.47-1.7c-0.79,0.06,0.02,3.33-4.24,2.5c-1.95-0.69-3.98-1.14-5.95-1.78  c-0.62-0.2-1.73-0.2-1.44-1.27c0.31-1.15,1.3-0.69,2.05-0.49c1.86,0.5,3.72,0.99,5.55,1.59c1.27,0.42,2.03,0.1,2.22-1.23  c0.47-3.27,0.93-7.05-0.27-8.62c-0.51-0.67-0.77-1.12-0.88-1.83c-0.21-1.35-0.65-3.12,1.11-3.64c2.11-0.63,2.94,1.56,3.04,2.55  c0.46,4.24,2.1,4.32,5.87,4.35c6.9,0.18,4.96,0.96,5.84-5.34c0.21-1.53,0.13-3.1,0.24-4.66c0.04-0.64,0.37-1.18,1.12-1.08  c0.67,0.09,0.74,0.66,0.71,1.19c-0.26,3.61-0.55,7.23-0.82,10.84c-0.09,1.21-0.94,1.41-1.88,1.39c-1.63-0.04-3.25-0.13-4.87-0.26  c-1.63-0.14-2.07,0.3-1.48,1.99c2.12,6.09,4.4,12.1,7.46,17.79c1.25,2.32,1.19,2.47-1.48,2.84c-1.55,0.22-1.5,1.07-1.34,2.19  c0.95,7.04,2.84,21.11,3.77,28.15c0.1,0.78,0.47,1.78-0.77,1.92c-1.18,0.14-1.16-0.9-1.27-1.69c-1.26-9.23-3.02-18.42-3.77-27.71  c-0.07-0.92-0.12-2.14-1.19-2.06c-0.86,0.06-1.16,0.6-1.12,1.35C54.85,60.9,55.4,74.86,55.66,81.85z" />
</svg>