<?xml version="1.0" encoding="utf-8"?>
<svg version="1.1" x="0px" y="0px" viewBox="0 0 100 125" style="enable-background:new 0 0 100 100;" xml:space="preserve">
  <path d="M20.31,43.93c-3,8.93-2.87,17.47-0.53,26.15c0.28,1.05,0.6,2.8,0.73,3.87c0.12,0.97,0.43,2.34-1.1,2.48  c-1.38,0.13-1.55-1.11-1.68-2.05c-1.42-10.25-4.14-19.52-0.89-29.89c0.39-1.26,0.55-2.26,0.94-3.51c1.19-3.85-0.74-6.19-3.76-8.13  c-1.11-0.71-2.18-1.48-3.14-2.38c-1.3-1.21-2.47-2.62-1.2-4.49c1.1-1.63,2.75-2.8,4.79-2.34c2.05,0.46,3,2.19,3.2,4.21  c0.58,5.92,0.65,6.11,6.46,6.62c2.92,0.25,5.19,1.44,7.32,3.42c5.22,4.87,9.51,10.51,13.7,16.22c1.49,2.02,2.65,2.13,4.54,0.58  c3.68-3.02,7.6-5.75,11.25-8.8c2.06-1.72,3.35-1.41,4.83,0.66c3.22,4.5,6.56,8.92,9.89,13.35c3.06,4.06,9.96,3.77,12.69-0.51  c0.4-0.62,0.63-1.6,1.66-1.19c1.06,0.42,0.91,1.3,0.67,2.24c-1.06,4.24-2.08,5.14-6.36,5.06c-13.84-0.26-27.67-0.62-41.5-0.84  c-4.12-0.07-7.28-1.37-9.91-4.81c-3.98-5.19-8.24-10.17-11.86-16.01C20.88,43.55,20.42,43.59,20.31,43.93z M47.1,61.9l26.43,0  c0.34,0,0.53-0.4,0.33-0.67c-3.22-4.28-6.3-7.78-9.36-11.87c-0.94-1.26-1.88-1.2-3.07-0.26c-4.95,3.93-10.04,7.08-14.64,12.09  C46.54,61.46,46.74,61.9,47.1,61.9z" />
</svg>