<?xml version="1.0" encoding="utf-8"?>
<svg version="1.1" x="0px" y="0px" viewBox="0 0 100 125" style="enable-background:new 0 0 100 100;" xml:space="preserve">
  <path d="M41.33,82.06c0.08,0.86,0.65,1.28,1.42,1.43c0.58,0.11,1.19,0.14,1.78,0.11c0.99-0.06,1.97-0.22,2.96-0.31  c1.83-0.16,2.44-0.73,2.15-2.53c-0.47-2.97-0.16-5.95-0.31-8.93c-0.12-2.45,0.12-4.9-0.19-7.34c-0.08-0.63,0.04-1.28,0.71-1.38  c0.22-0.03,0.88-0.17,0.86,1.81c-0.05,4.51-0.17,13.53,0.08,18.03c0.04,0.75,0.52,1.27,1.24,1.36c1.65,0.19,3.31,0.23,4.95-0.02  c0.95-0.14,1.45-0.92,1.43-1.87c-0.02-0.97-0.5-1.5-1.56-1.72c-1.87-0.39-1.87-0.39-1.93-2.23c-0.04-1.33-0.16-10.96-0.42-14.69  c-0.06-0.93,0.34-1.59,1.35-1.58c2.47-0.36,2.77-0.41,3.46-1.11c0.4-0.4,0.56-1.29,0.34-2.17c-0.32-1.26-0.77-2.11-1.5-3.13  c-1.52-2.11-2.3-4.56-2.38-7.05c-0.17-5.43-0.57-10.85-0.45-16.28c0.07-3.33-0.85-6.41-2.53-9.25c-0.57-0.97-0.98-1.31-0.25-2.25  c0.12-0.15,0.52-1.09,0.59-1.28c0.46-1.24-0.08-2.5-1.02-3.37c-0.95-0.87-2.66-1.06-3.91-0.42c-1.14,0.57-1.57,1.58-1.38,3.21  c0.08,0.73,0.29,1.43,0.7,2.05c0.94,1.39,0.97,2.9,0.38,4.37c-0.52,1.29-0.83,2.68-1.48,3.88c-1.35,2.49-1.7,5.23-1.61,7.88  c0.17,4.88-1.37,9.4-2.41,14.02c-0.55,2.44-0.91,4.94-1.83,7.3c-0.4,1.03-1.06,2.6,2.42,3.73c1.16,0.37,1.67,1.29,1.72,2.43  c0.2,4.49,0.35,8.99,0.54,13.48c0.04,1.06-0.24,1.74-1.31,1.82C42.67,80.19,41.19,80.42,41.33,82.06z" />
</svg>