<?xml version="1.0" encoding="utf-8"?>
<svg version="1.1" x="0px" y="0px" viewBox="0 0 100 125" style="enable-background:new 0 0 100 100;" xml:space="preserve">
  <path d="M50.32,28.41c-0.87,0.14-1.03,0.77-1,1.42c0.29,6.41-1.64,12.85,0.28,19.24c0.36,1.2,0.45,2.3-1.13,2.68  c-1,0.24-1.24,0.94-1.21,1.84c0.29,8.97,0.59,17.93,0.86,26.9c0.03,1.09,0.33,1.9,1.53,2.16c0.5,0.11,0.89,0.43,0.81,1.04  c-0.1,0.71-0.62,0.85-1.22,0.96c-2.37,0.45-3.15-0.16-3.24-2.49c-0.32-9.05-0.6-18.1-1-27.14c-0.05-1.13,0.13-1.91-0.87-1.9  c-1.16,0.01-1.37,0.96-1.36,1.93c0.04,4.08,0.02,8.17,0.17,12.25c0.12,3.33-2.78,4.82-6.1,7.14c-1.46,1.03-2.33,2.02-1.07,3.78  c0.41,0.57,0.86,1.37-0.07,1.9c-0.85,0.49-1.71-0.68-2.19-1.28c-0.74-0.94-2.1-3.02-0.45-4.2c2.06-1.47,4.01-3.1,6.14-4.47  c1.6-1.03,2.1-2.31,1.91-4.12c-0.36-3.41-0.65-6.82-0.87-10.24c-0.09-1.36-0.49-2.13-1.99-2.16c-1.95-0.04-2.31-1.01-1.49-2.7  c3.02-6.18,4.79-20.03,3.81-20.24c-0.84-0.18-4.28,3.1-6.24,7.16c-1.24,2.56-2.46,7.55-3.33,10.28c-0.23,0.73-0.45,1.77-1.61,1.34  c-0.97-0.36-0.55-1.24-0.42-1.91c1.54-7.6,5.05-14.23,9.95-20.16c1.12-1.35,2.74-2.03,4.21-2.91c1.87-1.12,2.93-2.57,2.21-4.86  c-0.4-1.26-0.1-2.47,0.6-3.5c0.96-1.43,2.91-1.22,3.72,0.46c0.6,1.24,0.95,2.12,2.23,0.56c0.95-1.16,2.16-0.92,3.3-0.16  c1.06,0.72,1.63,1.69,1.02,2.93c-1,2.03-0.3,3.58,1.17,5.02c2.63,2.57,3.69,5.97,4.52,9.37c1.6,6.55,4.64,12.36,8.62,17.71  c1.3,1.75,0.87,2.67-0.79,3.64c-1.63,0.95-3.22,1.96-5.06,2.42c-1.15,0.29-1.56,1-1.66,2.1c-0.26,3.09-0.53,6.18-0.88,9.25  c-0.13,1.08,0.46,1.69,1.12,2.29c2.18,1.97,4.33,3.98,6.6,5.85c1.49,1.23,1.46,2.37,0.25,3.68c-0.44,0.48-0.86,1.1-1.63,0.71  c-0.88-0.44-0.48-1.11-0.11-1.64c0.76-1.1-0.05-1.61-0.74-2.2c-2.16-1.87-4.29-3.77-6.49-5.6c-1.05-0.88-1.39-1.86-1.21-3.22  c0.34-2.67,0.57-5.36,0.72-8.04c0.04-0.74,0.29-2.11-0.73-2.14c-1.53-0.04-1.13,1.12-1.07,2.12c0.41,6.92,0.79,13.85,1.12,20.77  c0.11,2.31-0.46,2.81-3.53,2.73c-0.52-0.01-1.14-0.23-1.19-0.82c-0.05-0.58,0.26-0.94,0.8-1.05c1.93-0.38,1.79-1.81,1.69-3.23  c-0.45-6.1-0.94-12.2-1.32-18.3c-0.09-1.5-0.6-2.08-2.09-1.77c-2.08,0.42-2.78-0.39-2.45-2.51c1.18-7.49-0.36-16.21-0.33-23.71  C51.54,31.44,51.67,28.19,50.32,28.41z" />
</svg>