<?xml version="1.0" encoding="utf-8"?>
<svg version="1.1" x="0px" y="0px" viewBox="0 0 100 125" style="enable-background:new 0 0 100 100;" xml:space="preserve">
  <path d="M48.93,13.06c1.2,0.81,2.59,1.9,2.37,3.78c-0.24,2.07-1.3,3.81-2.23,5.61c-0.46,0.89-1.1,1.64,0.1,2.61  c5.45,4.43,9.7,9.88,13.29,15.87c1,1.67,3.02,5.12,2.08,5.5c-1.33,0.53-7.8-8.64-12.69-13.73c-0.41-0.43-1.14-0.17-1.19,0.41  c-0.51,5.43-0.24,11.21,1.03,15.86C53.6,56,56.69,62.44,62.19,67.48c2.46,2.26,6.87,8.26,5.06,8.66c-2.14,0.47-2.65-1.51-3.22-2.46  c-1.83-3.02-5.12-3.92-7.88-5.56c-1.26-0.75-2.07,0.43-2.84,1.21c-3.1,3.13-6.84,5.2-11.11,6.05c-3.73,0.75-4.21,2.06-4.13,6.87  c0.04,2.63-0.49,6.57-2.56,8.19c-0.47,0.37-3.2,1.5-2.56-1.01c0.74-2.91,1.17-4.99,1.52-7.85c0.24-2.04,0.94-4.31-1.52-5.73  c-0.62-0.36-0.67-1.15-0.6-1.84c1.1-11.51,0.19-23.36,3.72-34.45c2.91-9.11,0.15-17.66-0.38-26.44c-0.07-1.09-0.17-2.17-0.13-3.22  c0.04-1.11,1.65-1.16,1.84-0.07c0.59,3.51,2.02,6.81,3.04,10.19c0.33,1.11,0.44,2.73,1.94,2.86c1.61,0.15,2.4-1.4,2.23-2.57  C43.69,13.79,47.18,11.88,48.93,13.06z" />
</svg>