<?xml version="1.0" encoding="utf-8"?>
<svg version="1.1" x="0px" y="0px" viewBox="0 0 100 125" style="enable-background:new 0 0 100 100;" xml:space="preserve">
  <path d="M63.33,17.98c-0.16-1.8,0.83-3.05,2.58-3.66c2.18-0.75,3.93,0.34,4.04,2.65c0.04,0.84-0.12,1.73-0.41,2.52  c-1.18,3.16-1.38,6.48-1.77,9.78c-0.14,1.19-0.08,2.18,1.16,2.66c3.64,1.42,3.36,0.71,4.18-0.09c1.07-1.04,2.3-0.41,2.96,0.45  c0.62,0.8,0.39,1.59-0.04,2.4c-1.24,2.34-3.04,3.27-5.84,3c-2.48-0.24-2.74-0.13-2.75,2.17c-0.03,5.26-0.63,10.47-0.95,15.71  c-0.24,3.78,0.22,7.69,0.55,11.53c0.27,3.22,0.31,6.42,0.35,9.63c0.02,1.52,0.16,2.94,1.2,4.22c0.93,1.15,1.22,2.58,0.29,3.89  c-0.94,1.33-2.35,1.08-3.8,1.01c-1.7-0.08-3.76-1.05-3.58-5.79c0.08-2.07-0.56-16.38-0.75-21.84c-0.07-1.89-1.31-2.86-2.94-3.39  c-2.27-0.74-4.64-0.84-6.99-0.88c-4.35-0.07-8.47,7.33-10.54,10.4c-2.16,3.21-5.55,0.81-6.94-0.22c-1.77-1.3-3.37-2.01-5.55-0.68  c-1.26,0.77-2.75,0.29-3.7-1.01c-0.9-1.23-0.44-2.27,0.35-3.5c0.72-1.12,2.5-5.11,8.05-1.81c1.15,0.68,3.87,2.44,5.3,0.69  c1.23-1.5,2.51-2.93,3.93-4.23c2.48-2.28-1.72-2.11-2.56-2.2c-1.18-0.12-1.78-0.99-2.07-2.16c-0.45-1.85,1.73-2.77,2.73-2.66  c5.17,0.59,5.64-4.13,8.3-6.96c1.39-1.47,2.54-3.18,3.84-4.74c1.96-2.36-2.88-3.57-4.3-3.9c-1.08-0.25-2.15-0.56-2.29-1.88  c-0.1-1.03,1.21-2.21,2.75-2.2c2.83,0.19,4.52,0.29,6.58,1.27c1.68,0.8,3.36,0.72,6.13-2.82C62.4,23.3,63.77,22.83,63.33,17.98z" />
</svg>