<?xml version="1.0" encoding="utf-8"?>
<svg version="1.1" x="0px" y="0px" viewBox="0 0 100 125" style="enable-background:new 0 0 100 100;" xml:space="preserve">
  <path d="M67.71,21.72c-4.32-0.58-7.19,2.07-9.89,4.74c-1.67,1.65-2.76,2.05-4.61,0.25c-1.59-1.55-3.55-2.85-5.56-3.81  c-2.28-1.1-3.29-2.34-2.61-4.98c0.62-2.37,0.08-4.74-1.36-6.8c-0.94-1.34-2.2-1.65-3.76-1.13c-1.66,0.56-2.3,1.77-1.92,3.32  c0.48,1.95,1.04,3.94,1.97,5.7c1.15,2.16,0.67,3.7-0.82,5.42c-2.34,2.68-4.39,5.62-6.76,8.29c-2.29,2.58-2.34,4.69,0.57,6.77  c2.05,1.46,3.54,3.36,2.57,6.06c-1.82,5.07-1.09,10.02,0.18,15.06c2.09,8.33,2.35,16.92,3.38,25.41c0.31,2.51,1.4,3.52,3.94,4.1  c2.71,0.63,4.77-1.36,7.28-0.96c0.9,0.14,2.1,0.15,2.42-0.98c0.36-1.31-0.72-2.06-1.73-2.29c-2.41-0.53-2.31-2.17-2.26-4.05  c0.19-7.24,0.61-14.5-0.48-21.71c-0.25-1.67,0.18-3.07,1.58-4.08c2.06-1.49,2.42-3.63,2.54-5.97c0.26-5.06-0.46-10.06-1.05-15.87  c2.57,2.99,4.12,2.17,5.67-0.14c1.58-2.37,3.53-4.48,5.18-6.8c1.71-2.4,6.85-3.17,7.04-4.06C69.46,22.08,68.29,21.8,67.71,21.72z" />
</svg>