<?xml version="1.0" encoding="utf-8"?>
<svg version="1.1" x="0px" y="0px" viewBox="0 0 100 125" style="enable-background:new 0 0 100 100;" xml:space="preserve">
  <path d="M69.59,56.5c-4.25-0.98-3.22-0.56-2.64,2.62c0.22,1.2,0.59,2.35,0.83,3.58c0.36,1.84,0.84,3.12,2.98,3.32  c1.52,0.14,1.53,1.74,2.03,2.8c0.44,0.93,0.65,2.07,2.14,1.52c0.3-0.11,0.65-0.02,0.75,0.4c0.08,0.37-0.11,0.6-0.39,0.8  c-1.22,0.91-2.39,0.62-3.07-0.79c-0.2-0.41-0.48-0.8-0.57-1.23c-0.48-2.57-2.45-2.83-4.52-3.02c-0.78-0.07-1.22,0.14-1.45,0.89  c-0.79,2.53-1.58,5.06-2.43,7.56c-0.3,0.9,0.21,1.3,0.76,1.77c0.31,0.26,0.5,0.63,0.15,1c-0.28,0.29-0.59,0.12-0.89-0.02  c-1.1-0.53-1.76-1.21-1.3-2.59c0.84-2.51,1.55-5.07,2.37-7.58c0.32-0.99,0.31-1.68-0.95-1.71c-0.99-0.03-1.02-0.72-1.13-1.47  c-0.33-2.25-0.26-4.51-0.24-6.77c0.01-1.3-0.24-2.15-1.73-1.22c-1.17,0.73-1.62,0.06-2.24-0.85c-2.43-3.51-2.95-7.49-3.11-11.6  c-0.19-4.73-0.42-5.45-2.86-9.17c0.31,3.73,0.6,7.16,0.89,10.58c0.15,1.74,0.32,3.47,0.47,5.21c0.04,0.51,0.1,1.23-0.51,1.31  c-1.63,0.22-1.12,1.26-0.89,2.13c1.26,4.69,3.15,8.71,0.61,19.42c-0.22,0.9-0.43,1.79,0.63,2.37c0.4,0.22,0.44,0.62,0.19,1  c-0.18,0.27-0.41,0.46-0.79,0.47c-1.18,0.03-2.31-1.17-2.13-2.38c0.28-1.92,0.42-3.88,0.98-5.72c1.66-5.5-0.55-10.58-1.5-15.8  c-0.11-0.59-0.36-1.17-1.14-1.04c-0.88,0.14-0.85,0.87-0.85,1.51c0,4.98,0.02,9.96,0.03,14.93c0.01,2.52,0.03,5.04,0.03,7.56  c0,0.63,0.1,1.41-0.68,1.66c-0.92,0.3-1.93,0.51-2.83,0.02c-0.64-0.35-0.49-0.92,0.2-1.08c1.18-0.26,1.29-1.09,1.29-2.05  c-0.01-6.79-0.01-13.58,0.01-20.37c0-1.18-0.2-2.01-1.69-1.95c-1.44,0.05-1.45-1.12-1.35-2.07c0.47-4.38-0.01-8.79,0.57-13.16  c0.03-0.24,0-0.48-0.27-0.81c-0.91,1.97-1.91,3.9-2.72,5.91c-0.71,1.76-1.78,3.11-3.41,4.06c-3.32,1.94-5.96,4.49-7.26,8.23  c-0.41,1.18-1.16,1.6-2.4,1.13c-1.21-0.46-1.47,0.13-1.56,1.31c-0.47,5.64-0.14,11.21,1.29,16.7c0.22,0.85,0.14,1.85,0.91,2.49  c0.34,0.29,0.85,0.49,0.59,1.05c-0.22,0.47-0.73,0.48-1.17,0.55c-0.64,0.1-0.97-0.22-1.1-0.81c-0.21-0.94-0.44-1.89-0.64-2.83  c-0.41-2.02-0.8-4.05-1.22-6.08c-0.51-2.49-4.46-3.85-6.19-1.96c-2.44,2.67-5.07,4.93-8.55,6.12c-0.61,0.21-1.03,0.94-1.55,1.42  c-0.25,0.23-0.54,0.4-0.86,0.15c-0.33-0.25-0.22-0.58-0.06-0.87c0.59-1.06,1.46-1.8,2.6-2.21c2.69-0.96,4.83-2.63,6.67-4.8  c0.8-0.95,1-1.45-0.37-1.85c-1.19-0.35-1.15-0.91-0.35-1.77c2.22-2.41,4.36-4.9,6.71-7.55c-3.49-0.11-6.66,0.06-9.79,0.82  c-0.63,0.15-1.74,0.78-1.92-0.41c-0.13-0.89,0.97-0.78,1.62-0.95c3.27-0.89,6.66-0.7,9.99-1.05c1.26-0.13,1.73-0.56,1.39-1.86  c-0.28-1.05,0.11-1.95,1.13-2.41c0.66-0.3,1.44-0.36,1.96,0.29c0.72,0.89,0.36,1.8-0.04,2.73c-0.28,0.65-1.56,1.33-0.29,2.06  c1.24,0.72,2.14,0.02,2.53-1.2c1.22-3.84,4.06-6.17,7.4-8.04c0.94-0.53,1.54-1.29,1.97-2.29c1.26-2.9,2.45-5.84,4.03-8.6  c0.74-1.3,1.49-2.58,2.81-3.4c1.65-1.02,1.89-2.3,0.79-3.89c-0.8-1.15-0.85-2.3,0.32-3.27c0.62-0.51,1.32-0.85,2.15-0.51  c0.91,0.38,1.19,1.2,1.17,2.06c-0.01,0.62-0.21,1.28-0.47,1.86c-0.75,1.62-1.07,3.01,1.29,3.43c0.48,0.09,0.77,0.45,1.01,0.84  c2.32,3.87,4.93,7.58,4.94,12.41c0,2.31,0.35,4.63,0.58,6.94c0.16,1.6,0.99,3,1.95,4.15c0.9,1.09,1.81-0.32,2.69-0.64  c0.78-0.28,1.39-0.73,0.92-1.75c-0.35-0.76-0.64-1.56-0.52-2.43c0.11-0.81,0.33-1.57,1.3-1.67c0.99-0.1,1.58,0.47,1.87,1.35  c0.3,0.9,0.2,1.78-0.25,2.63c-0.36,0.69-0.56,1.57,0.3,1.82c2.66,0.77,5.25,2.28,8.21,0.95c1.03-0.46,1.53-1.08,1.62-2.15  c0.15-1.93,0.44-3.86,0.47-5.79c0.07-4.43,1.06-8.71,1.97-13.01c0.37-1.75,1.15-3.29,2.54-4.47c1.01-0.86,1.51-1.84,1.09-3.24  c-0.29-0.98-0.28-2.06,0.06-3.06c0.29-0.84,0.85-1.47,1.85-1.42c1.02,0.06,1.44,0.75,1.62,1.65c0.06,0.31,0.13,0.68,0.04,0.96  c-1.32,3.95,0.68,7.57,1.43,11.21c0.81,3.96,3.76,7.5,5.56,10.8c0.31,0.56,1.21,2.14,0.4,2.53c-0.55,0.27-0.95-0.25-1.21-0.73  c-1.32-2.43-2.62-4.88-4.14-7.73c0.07,3.73,0.93,6.86,1.7,10.01c0.61,2.51,1.15,5.04,1.8,7.54c0.35,1.35,0.21,2.16-1.44,2.04  c-1-0.07-1.3,0.4-1.25,1.42c0.16,3.74,0.18,7.49,0.33,11.24c0.05,1.28-0.21,2.81,1.69,3.23c0.57,0.12,0.57,0.76,0.24,1.11  c-0.77,0.83-1.82,0.45-2.74,0.39c-0.98-0.06-0.67-0.87-0.69-1.49c-0.11-4.52-0.21-9.04-0.38-13.56c-0.03-0.77,0.02-1.92-1.17-1.88  c-1.26,0.04-0.98,1.18-0.96,1.95c0.1,4.52,0.25,9.04,0.39,13.56c0.03,0.94,0.15,1.95-1.26,1.84c-1.33-0.11-0.92-1.11-0.89-1.92  c0.18-4.33,0.15-8.66-0.04-12.98c-0.07-1.69-0.75-2.35-2.51-2.31c-3.49,0.08-3.4,0-2.92-3.49c0.79-5.75,2.36-11.4,2.18-17.28  c-0.01-0.42,0.15-0.88-0.21-1.3c-1.69,3.37-1.8,6.99-1.71,10.59C77.25,51.78,77.81,58.4,69.59,56.5z" />
</svg>