<?xml version="1.0" encoding="utf-8"?>
<svg version="1.1" x="0px" y="0px" viewBox="0 0 100 125" style="enable-background:new 0 0 100 100;" xml:space="preserve">
  <path d="M16.09,22.8c1.48-1.39,1.22-3.42,0.77-5.15c-0.45-1.73-1.87-2.85-3.7-2.5c-1.73,0.33-2.46,1.82-2.36,3.53  c0.05,0.92,0.38,1.85,0.69,2.74c0.56,1.63,1.01,3.29,1.13,5.02c0.48,6.76,0.64,13.54,1.55,20.28c0.58,4.33,0.65,8.74,0.79,13.12  c0.06,1.97,0.97,2.25,2.6,1.96c2.79-0.49,5.6-0.89,8.4-1.35c0.98-0.16,1.99-0.31,2.41,0.84c1.18,3.21,3.11,6.14,3.44,9.67  c0.39,4.19,0.84,7.53,1.38,11.7c0.23,1.81,3.89,2.96,5.19,1.75c0.7-0.65,0.24-1.73-0.66-1.84c-2.78-0.33-2.35-1.56-2.68-3.36  c-0.89-4.79-0.68-9.75-2.61-14.4c-3.46-8.33-6.68-16.77-9.98-25.17c-0.78-1.99-1.45-4.02-2.42-6.72c2.53,1.11,4.47,1.81,6.27,2.79  c2.98,1.62,6.08,2,9.44,1.82c6.92-0.38,13.84-1.7,20.78-0.94c6.36,0.7,12.48-0.54,18.67-1.43c0.82-0.12,2.46-0.8,2.41,0.16  c-0.17,3.32-7.92,15.51-10.52,20.86c-3.9,8.02-9.12,16.02-13.53,23.9c-0.72,1.29-1.55,2.27-3.18,2.18  c-0.74-0.04-2.48-0.11-2.57,1.07c-0.09,1.2,1.06,1.26,2.22,1.41c1.79,0.23,3.48-0.3,4.94-2.81c4.01-6.92,7.99-13.86,12-20.78  c3.26-5.62,3.3-5.67,9.17-2.8c1.79,0.87,2.68,0.67,3.55-1.2c2.92-6.22,4.52-12.8,5.51-19.54c0.71-4.85,1.05-9.76,3.54-14.16  c0.29-0.51,0.46-1.14,0.49-1.72c0.11-1.84-0.72-3.35-2.48-3.75c-1.62-0.36-3.45,0.45-4.09,2.03c-0.72,1.78-0.78,3.79,0.67,5.45  c1.5,1.72,0.92,3.12-0.44,4.49c-1.17,1.18-2.48,2.03-4.21,2.3c-8.22,1.27-16.33,3.15-24.81,2.06c-6.56-0.84-13.1,1.4-19.73,0.92  c-6.39-0.46-13.12-3.48-17.77-7.51C15.24,26.76,14.1,24.67,16.09,22.8z" />
</svg>