<?xml version="1.0" encoding="utf-8"?>
<svg version="1.1" x="0px" y="0px" viewBox="0 0 100 125" style="enable-background:new 0 0 100 100;" xml:space="preserve">
  <path d="M67.02,38.24c-1.61-4.64-6.2-10.77-11.43-14.39c-1.84-1.27-2.24-2.72-1.98-4.82c0.47-3.75,1.96-7.95-3.28-9.87  c-0.27-0.1-0.49-0.58-0.58-0.92c-1.11-4.36-3.02-2.16-3.95-0.19c-1.37,2.87-3.53,4.74-5.86,6.7c-2.2,1.85-4.1,4.08-6.04,6.23  c-1.46,1.62-1.79,3.03,0.43,4.62c4.35,3.11,6.24,7.47,6.72,12.89c0.47,5.23,0.62,8.71,1.37,14.03c0.3,2.11,0.04,5.75,0.1,7.06  c0.27,6.79,0.81,13.57,1.14,20.36c0.18,3.6,0.67,7.26-1.1,10.68c-0.49,0.95-1.52,1.89-0.5,3.06c0.54,0.61,1.35,0.73,2.1,0.51  c1.38-0.4,2.19-1.58,2.11-2.83c-0.34-5.46,1.87-14.51,2.51-20.61c0.03-0.24,0.38-0.25,0.41-0.01c0.85,6.88,1.27,16.23,5.73,21.63  c1.02,1.23,4.35,1.76,2.67-1.65c-0.48-0.99-2.11-2.72-2.29-3.88c-1.41-9.21-0.6-15.83-1.07-25.32c-0.24-4.8,0.31-8.47,3.45-11.56  c2.78-2.74,3.17-3.04,5.96-5.78C64.64,43.2,67.63,40,67.02,38.24z M40.12,18.79c1.57-1.91,3.21-3.75,5.23-6.06  c0.2-0.22,0.56-0.08,0.55,0.22c-0.11,3.19-0.04,5.76,0.93,8.21c0.23,0.59,0.44,1.36-0.1,1.75c-2.39,1.71-4.16-0.15-6.18-1.15  C38.88,20.92,39.25,19.85,40.12,18.79z M63.89,39.86c-1.3,1.3-5.87,8.17-6.84,6.3c-0.86-1.64,1.88-13.85,4.06-11.73  C62.32,35.59,65.19,38.56,63.89,39.86z" />
</svg>